# xmcd
#
# Track frame offsets:
#	150
#	11527
#	23717
#	37358
#	49386
#	62224
#	72513
#	84332
#	97453
#	110169
#	121822
#	133531
#	145433
#	155746
#	169954
#	180386
#	191895
#	205642
#
# Disc length: 2907 seconds
#
# Revision: 1
# Processed by: cddbd v1.5.2PL0 Copyright (c) Steve Scherf et al.
# Submitted via: audiograbber 1.83.01
#
DISCID=150b5912
DTITLE=Ray Charles - Hey Now - The Best of Ray Charles
DYEAR=2006
DGENRE=Blues
TTITLE0=She's On The Ball
TTITLE1=Money Honey
TTITLE2=Baby Let Me Hold Your Hand
TTITLE3=I Love You, I Love You (I Will Never Let You Go)
TTITLE4=Don't Put All Your Dreams In One Basket
TTITLE5=Ain't That Fine
TTITLE6=If I Give You My Love
TTITLE7=Baby Won't You Please Come Home
TTITLE8=Blues Before Sunrise
TTITLE9=C.C. Rider
TTITLE10=How Long Blues
TTITLE11=Can't See You Darling
TTITLE12=Sitting On Top Of The World
TTITLE13=Someday
TTITLE14=Hey Now
TTITLE15=What Have I Done
TTITLE16=This Love Of Mine
TTITLE17=Going Down Slow
EXTD=HZCD10036
EXTT0=
EXTT1=
EXTT2=
EXTT3=
EXTT4=
EXTT5=
EXTT6=
EXTT7=
EXTT8=
EXTT9=
EXTT10=
EXTT11=
EXTT12=
EXTT13=
EXTT14=
EXTT15=
EXTT16=
EXTT17=
PLAYORDER=
